<svg version="1.1" id="Layer_1" xmlns="http://www.w3.org/2000/svg" xmlns:xlink="http://www.w3.org/1999/xlink" x="0px" y="0px" width="100px" height="100px" viewBox="0 0 100 100" enable-background="new 0 0 100 100" xml:space="preserve">
<g>
  <path
    fill="#FFCFC0"
    d="M49.895,39.914c5.5,0,9.978,4.472,9.978,9.978c0,5.495-4.479,9.978-9.978,9.978
    c-5.501,0-9.979-4.481-9.979-9.978C39.916,44.386,44.394,39.914,49.895,39.914 M49.895,29.936
    c-11.023,0-19.956,8.935-19.956,19.956c0,11.016,8.933,19.956,19.956,19.956c11.02,0,19.955-8.938,19.955-19.956
    C69.85,38.871,60.914,29.936,49.895,29.936L49.895,29.936z"/>
</g>
<g>
  <path fill="#FFCFC0" d="M49.895,19.958c-2.756,0-4.992-2.233-4.992-4.991V4.989c0-2.76,2.236-4.989,4.992-4.989
    c2.755,0,4.986,2.229,4.986,4.989v9.978C54.881,17.725,52.648,19.958,49.895,19.958L49.895,19.958z"/>
</g>
<g>
  <path
    fill="#FFCFC0"
    d="M74.592,30.183c-1.275,0-2.554-0.483-3.527-1.456c-1.948-1.954-1.948-5.112,0-7.062l7.058-7.054
    c1.942-1.949,5.104-1.949,7.052,0c1.949,1.952,1.949,5.11,0,7.054l-7.052,7.062C77.146,29.699,75.869,30.183,74.592,30.183
    L74.592,30.183z"/>
</g>
<g>
  <path fill="#FFCFC0" d="M94.797,54.883h-9.979c-2.756,0-4.991-2.23-4.991-4.986c0-2.755,2.235-4.989,4.991-4.989h9.979
    c2.75,0,4.986,2.234,4.986,4.989C99.783,52.652,97.547,54.883,94.797,54.883L94.797,54.883z"/>
</g>
<g>
  <path
    fill="#FFCFC0"
    d="M81.636,86.641c-1.278,0-2.554-0.488-3.524-1.467l-7.057-7.054c-1.949-1.949-1.949-5.106,0-7.05
    c1.948-1.948,5.106-1.948,7.057,0l7.052,7.05c1.948,1.952,1.948,5.108,0,7.054C84.189,86.15,82.915,86.641,81.636,86.641
    L81.636,86.641z"/>
</g>
<g>
  <path fill="#FFCFC0" d="M49.879,99.786c-2.758,0-4.991-2.231-4.991-4.986V84.82c0-2.754,2.233-4.99,4.991-4.99
    s4.991,2.236,4.991,4.99V94.8C54.87,97.555,52.637,99.786,49.879,99.786L49.879,99.786z"/>
</g>
<g>
  <path
    fill="#FFCFC0"
    d="M18.127,86.625c-1.279,0-2.554-0.482-3.526-1.461c-1.949-1.952-1.949-5.109,0-7.059l7.051-7.057
    c1.949-1.947,5.107-1.947,7.057,0c1.949,1.954,1.949,5.112,0,7.057l-7.057,7.059C20.681,86.143,19.407,86.625,18.127,86.625
    L18.127,86.625z"/>
</g>
<g>
  <path fill="#FFCFC0" d="M14.967,54.868h-9.98C2.229,54.868,0,52.632,0,49.881c0-2.76,2.229-4.989,4.986-4.989h9.98
    c2.752,0,4.989,2.229,4.989,4.989C19.956,52.632,17.719,54.868,14.967,54.868L14.967,54.868z"/>
</g>
<g>
  <path
    fill="#FFCFC0"
    d="M25.204,30.178c-1.277,0-2.554-0.494-3.528-1.466l-7.057-7.051c-1.949-1.955-1.949-5.107,0-7.057
    c1.949-1.944,5.107-1.944,7.057,0l7.054,7.057c1.949,1.949,1.949,5.107,0,7.051C27.752,29.684,26.478,30.178,25.204,30.178
    L25.204,30.178z"/>
</g>
</svg>
